<?xml version="1.0" encoding="utf-8"?>
<!-- Generator: Adobe Illustrator 23.0.1, SVG Export Plug-In . SVG Version: 6.00 Build 0)  -->
<svg version="1.1" id="Capa_1" xmlns="http://www.w3.org/2000/svg" xmlns:xlink="http://www.w3.org/1999/xlink" x="0px" y="0px"
	 viewBox="0 0 126.2 13.8" style="enable-background:new 0 0 126.2 13.8;" xml:space="preserve">
<style type="text/css">
	.st0{fill:#A9BAC2;}
</style>
<g>
	<g>
		<path class="st0" d="M70,9.1L70,9.1c0-2.7,2.1-4.8,5-4.8c2.8,0,4.9,2.1,4.9,4.7v0c0,2.6-2.1,4.8-5,4.8C72.1,13.8,70,11.7,70,9.1z
			 M77.4,9.1L77.4,9.1c0-1.4-1-2.6-2.4-2.6c-1.5,0-2.4,1.1-2.4,2.5v0c0,1.3,1,2.5,2.4,2.5C76.5,11.6,77.4,10.4,77.4,9.1z"/>
		<path class="st0" d="M80.3,9.1L80.3,9.1c0-2.7,2.1-4.8,5-4.8c2.8,0,4.9,2.1,4.9,4.7v0c0,2.6-2.1,4.8-5,4.8
			C82.4,13.8,80.3,11.7,80.3,9.1z M87.7,9.1L87.7,9.1c0-1.4-1-2.6-2.4-2.6c-1.5,0-2.4,1.1-2.4,2.5v0c0,1.3,1,2.5,2.4,2.5
			C86.8,11.6,87.7,10.4,87.7,9.1z"/>
		<path class="st0" d="M91.1,2.3c0-0.7,0.6-1.3,1.3-1.3c0.7,0,1.3,0.6,1.3,1.3V8L97,4.9c0.4-0.4,0.7-0.6,1.1-0.6
			c0.7,0,1.1,0.6,1.1,1.2c0,0.4-0.2,0.8-0.6,1.1l-2,1.8l2.4,3.3c0.2,0.3,0.3,0.5,0.3,0.8c0,0.7-0.6,1.2-1.2,1.2
			c-0.5,0-0.8-0.2-1.1-0.6L94.7,10l-1,0.9v1.5c0,0.7-0.6,1.3-1.3,1.3c-0.7,0-1.3-0.6-1.3-1.3V2.3z"/>
		<path class="st0" d="M100.1,2.3c0-0.8,0.6-1.2,1.5-1.2c0.8,0,1.5,0.5,1.5,1.2v0c0,0.8-0.6,1.2-1.5,1.2
			C100.7,3.5,100.1,3,100.1,2.3L100.1,2.3z M100.3,5.6c0-0.7,0.6-1.3,1.3-1.3c0.7,0,1.3,0.6,1.3,1.3v6.8c0,0.7-0.6,1.3-1.3,1.3
			c-0.7,0-1.3-0.6-1.3-1.3V5.6z"/>
		<path class="st0" d="M104.7,11V6.7h-0.1c-0.6,0-1.1-0.5-1.1-1.1c0-0.6,0.5-1.1,1.1-1.1h0.1V3.3c0-0.7,0.6-1.3,1.3-1.3
			c0.7,0,1.3,0.6,1.3,1.3v1.1h1.1c0.6,0,1.1,0.5,1.1,1.1c0,0.6-0.5,1.1-1.1,1.1h-1.1v3.9c0,0.6,0.3,0.9,0.8,0.9c0.1,0,0.3,0,0.3,0
			c0.6,0,1.1,0.5,1.1,1.1c0,0.5-0.3,0.8-0.7,1c-0.5,0.2-0.9,0.3-1.5,0.3C105.8,13.8,104.7,13.1,104.7,11z"/>
		<path class="st0" d="M110.3,2.3c0-0.8,0.6-1.2,1.5-1.2c0.8,0,1.5,0.5,1.5,1.2v0c0,0.8-0.6,1.2-1.5,1.2C111,3.5,110.3,3,110.3,2.3
			L110.3,2.3z M110.5,5.6c0-0.7,0.6-1.3,1.3-1.3s1.3,0.6,1.3,1.3v6.8c0,0.7-0.6,1.3-1.3,1.3s-1.3-0.6-1.3-1.3V5.6z"/>
	</g>
	<g>
		<path class="st0" d="M114.8,11V6.7h-0.1c-0.6,0-1.1-0.5-1.1-1.1c0-0.6,0.5-1.1,1.1-1.1h0.1V3.3c0-0.7,0.6-1.3,1.3-1.3
			s1.3,0.6,1.3,1.3v1.1h1.1c0.6,0,1.1,0.5,1.1,1.1c0,0.6-0.5,1.1-1.1,1.1h-1.1v3.9c0,0.6,0.3,0.9,0.8,0.9c0.1,0,0.3,0,0.3,0
			c0.6,0,1.1,0.5,1.1,1.1c0,0.5-0.3,0.8-0.7,1c-0.5,0.2-0.9,0.3-1.5,0.3C115.9,13.8,114.8,13.1,114.8,11z"/>
	</g>
	<g>
		<path class="st0" d="M121.4,12H121c-0.1,0-0.2-0.1-0.2-0.2c0-0.1,0.1-0.2,0.2-0.2h1.3c0.1,0,0.2,0.1,0.2,0.2
			c0,0.1-0.1,0.2-0.2,0.2h-0.4v1.4c0,0.1-0.1,0.2-0.2,0.2c-0.1,0-0.2-0.1-0.2-0.2V12z"/>
		<path class="st0" d="M122.8,11.8c0-0.1,0.1-0.2,0.2-0.2h0c0.1,0,0.2,0,0.2,0.1l0.5,0.9l0.5-0.9c0-0.1,0.1-0.1,0.2-0.1h0
			c0.1,0,0.2,0.1,0.2,0.2v1.6c0,0.1-0.1,0.2-0.2,0.2c-0.1,0-0.2-0.1-0.2-0.2v-1l-0.4,0.6c0,0.1-0.1,0.1-0.2,0.1
			c-0.1,0-0.1,0-0.2-0.1l-0.4-0.6v1c0,0.1-0.1,0.2-0.2,0.2c-0.1,0-0.2-0.1-0.2-0.2V11.8z"/>
	</g>
	<path class="st0" d="M64.4,4.2c-0.9,0-1.7,0.2-2.4,0.6V2.3C62,1.6,61.4,1,60.7,1c-0.7,0-1.3,0.6-1.3,1.3v6.7v0v0.2l0,0
		c0.1,2.5,2.2,4.5,4.9,4.5c2.9,0,5-2.1,5-4.8v0C69.3,6.3,67.2,4.2,64.4,4.2 M66.7,9c0,1.3-0.9,2.5-2.4,2.5c-1.4,0-2.4-1.2-2.4-2.5v0
		c0-1.3,0.9-2.5,2.4-2.5C65.8,6.4,66.7,7.6,66.7,9L66.7,9z"/>
</g>
<g>
	<path class="st0" d="M6.4,6.8c0,1.3-1,2.1-2.6,2.1H2.1V11H1.6V4.6h2.3C5.5,4.6,6.4,5.4,6.4,6.8z M6,6.8c0-1.1-0.7-1.7-2.1-1.7H2.1
		v3.4h1.8C5.2,8.5,6,7.9,6,6.8z"/>
	<path class="st0" d="M7.3,8.6c0-1.4,1-2.4,2.4-2.4s2.4,1,2.4,2.4C12,10,11,11,9.7,11S7.3,10,7.3,8.6z M11.6,8.6c0-1.2-0.8-2-1.9-2
		s-1.9,0.8-1.9,2c0,1.2,0.8,2,1.9,2S11.6,9.8,11.6,8.6z"/>
	<path class="st0" d="M20,6.3L18.3,11h-0.4l-1.6-4.1L14.6,11h-0.4l-1.8-4.7h0.4l1.6,4.2L16,6.3h0.4l1.6,4.2l1.6-4.2H20z"/>
	<path class="st0" d="M25,8.7h-4.1c0,1.1,0.9,1.9,2,1.9c0.6,0,1.1-0.2,1.5-0.7l0.3,0.3c-0.4,0.5-1.1,0.8-1.8,0.8
		c-1.4,0-2.4-1-2.4-2.4c0-1.4,1-2.4,2.3-2.4s2.3,1,2.3,2.4C25,8.6,25,8.7,25,8.7z M20.9,8.4h3.6c-0.1-1-0.8-1.8-1.8-1.8
		S21,7.3,20.9,8.4z"/>
	<path class="st0" d="M28.6,6.2v0.4c0,0-0.1,0-0.1,0c-1,0-1.7,0.7-1.7,1.9V11h-0.5V6.3h0.4v1C27.1,6.6,27.7,6.2,28.6,6.2z"/>
	<path class="st0" d="M33.8,8.7h-4.1c0,1.1,0.9,1.9,2,1.9c0.6,0,1.1-0.2,1.5-0.7l0.3,0.3c-0.4,0.5-1.1,0.8-1.8,0.8
		c-1.4,0-2.4-1-2.4-2.4c0-1.4,1-2.4,2.3-2.4s2.3,1,2.3,2.4C33.8,8.6,33.8,8.7,33.8,8.7z M29.7,8.4h3.6c-0.1-1-0.8-1.8-1.8-1.8
		S29.8,7.3,29.7,8.4z"/>
	<path class="st0" d="M39.4,4.3V11H39V9.9C38.6,10.6,37.9,11,37,11c-1.3,0-2.3-1-2.3-2.4c0-1.4,1-2.4,2.3-2.4c0.8,0,1.5,0.4,1.9,1.1
		V4.3H39.4z M39,8.6c0-1.2-0.8-2-1.9-2s-1.9,0.8-1.9,2c0,1.2,0.8,2,1.9,2S39,9.8,39,8.6z"/>
	<path class="st0" d="M48.4,8.6c0,1.4-1,2.4-2.3,2.4c-0.9,0-1.6-0.4-1.9-1.1V11h-0.4V4.3h0.5v3.1c0.4-0.7,1.1-1.1,1.9-1.1
		C47.4,6.2,48.4,7.2,48.4,8.6z M47.9,8.6c0-1.2-0.8-2-1.9-2c-1.1,0-1.9,0.8-1.9,2c0,1.2,0.8,2,1.9,2C47.1,10.6,47.9,9.8,47.9,8.6z"
		/>
	<path class="st0" d="M53.4,6.3L51,11.6c-0.4,0.9-0.9,1.1-1.5,1.1c-0.4,0-0.8-0.1-1.1-0.4l0.2-0.3c0.2,0.3,0.5,0.4,0.9,0.4
		c0.4,0,0.8-0.2,1-0.8l0.3-0.6l-2.1-4.7h0.5l1.9,4.2L53,6.3H53.4z"/>
</g>
</svg>
